<svg xmlns="http://www.w3.org/2000/svg" xmlns:xlink="http://www.w3.org/1999/xlink" width="321" zoomAndPan="magnify" viewBox="0 0 240.75 261.749992" height="349" preserveAspectRatio="xMidYMid meet" version="1.0"><defs><clipPath id="011af3741d"><path d="M 0 0.0117188 L 240 0.0117188 L 240 261.488281 L 0 261.488281 Z M 0 0.0117188 " clip-rule="nonzero"/></clipPath><clipPath id="7bc8f87d63"><path d="M 0 0.0117188 L 239.875 0.0117188 L 239.875 239.886719 L 0 239.886719 Z M 0 0.0117188 " clip-rule="nonzero"/></clipPath><clipPath id="30b65b66f8"><path d="M 61.4375 0.0117188 L 178.4375 0.0117188 C 194.730469 0.0117188 210.359375 6.484375 221.878906 18.003906 C 233.402344 29.527344 239.875 45.152344 239.875 61.445312 L 239.875 178.449219 C 239.875 194.742188 233.402344 210.371094 221.878906 221.890625 C 210.359375 233.414062 194.730469 239.886719 178.4375 239.886719 L 61.4375 239.886719 C 45.140625 239.886719 29.515625 233.414062 17.996094 221.890625 C 6.472656 210.371094 0 194.742188 0 178.449219 L 0 61.445312 C 0 45.152344 6.472656 29.527344 17.996094 18.003906 C 29.515625 6.484375 45.140625 0.0117188 61.4375 0.0117188 Z M 61.4375 0.0117188 " clip-rule="nonzero"/></clipPath><clipPath id="456f75f67d"><path d="M 0 0.0117188 L 239.875 0.0117188 L 239.875 239.886719 L 0 239.886719 Z M 0 0.0117188 " clip-rule="nonzero"/></clipPath><clipPath id="59aecc9215"><path d="M 61.4375 0.0117188 L 178.4375 0.0117188 C 194.730469 0.0117188 210.359375 6.484375 221.878906 18.003906 C 233.402344 29.527344 239.875 45.152344 239.875 61.445312 L 239.875 178.449219 C 239.875 194.742188 233.402344 210.371094 221.878906 221.890625 C 210.359375 233.414062 194.730469 239.886719 178.4375 239.886719 L 61.4375 239.886719 C 45.140625 239.886719 29.515625 233.414062 17.996094 221.890625 C 6.472656 210.371094 0 194.742188 0 178.449219 L 0 61.445312 C 0 45.152344 6.472656 29.527344 17.996094 18.003906 C 29.515625 6.484375 45.140625 0.0117188 61.4375 0.0117188 Z M 61.4375 0.0117188 " clip-rule="nonzero"/></clipPath><clipPath id="d09b1f0e1e"><rect x="0" width="240" y="0" height="240"/></clipPath><clipPath id="9e37c1ef31"><path d="M 87.976562 239.019531 L 151.984375 239.019531 L 151.984375 261.132812 L 87.976562 261.132812 Z M 87.976562 239.019531 " clip-rule="nonzero"/></clipPath><clipPath id="305dea905a"><path d="M 119.9375 261.132812 L 151.898438 239.019531 L 87.976562 239.019531 Z M 119.9375 261.132812 " clip-rule="nonzero"/></clipPath><clipPath id="b6b4c04948"><path d="M 0.976562 0.0195312 L 64.984375 0.0195312 L 64.984375 22.132812 L 0.976562 22.132812 Z M 0.976562 0.0195312 " clip-rule="nonzero"/></clipPath><clipPath id="f054091223"><path d="M 32.9375 22.132812 L 64.898438 0.0195312 L 0.976562 0.0195312 Z M 32.9375 22.132812 " clip-rule="nonzero"/></clipPath><clipPath id="b74a7432be"><rect x="0" width="65" y="0" height="23"/></clipPath><clipPath id="a820e5b249"><rect x="0" width="240" y="0" height="262"/></clipPath></defs><g clip-path="url(#011af3741d)"><g transform="matrix(1, 0, 0, 1, 0, -0.000000000000026427)"><g clip-path="url(#a820e5b249)"><g clip-path="url(#7bc8f87d63)"><g clip-path="url(#30b65b66f8)"><g transform="matrix(1, 0, 0, 1, 0, -0.000000000000026427)"><g clip-path="url(#d09b1f0e1e)"><g clip-path="url(#456f75f67d)"><g clip-path="url(#59aecc9215)"><path fill="#197b30" d="M 0 0.0117188 L 239.875 0.0117188 L 239.875 239.886719 L 0 239.886719 Z M 0 0.0117188 " fill-opacity="1" fill-rule="nonzero"/></g></g></g></g></g></g><g clip-path="url(#9e37c1ef31)"><g clip-path="url(#305dea905a)"><g transform="matrix(1, 0, 0, 1, 87, 239)"><g clip-path="url(#b74a7432be)"><g clip-path="url(#b6b4c04948)"><g clip-path="url(#f054091223)"><path fill="#197b30" d="M 0.976562 0.0195312 L 64.898438 0.0195312 L 64.898438 22.132812 L 0.976562 22.132812 Z M 0.976562 0.0195312 " fill-opacity="1" fill-rule="nonzero"/></g></g></g></g></g></g></g></g></g></svg>